<svg width="90" height="70" viewBox="0 0 90 70" fill="none" xmlns="http://www.w3.org/2000/svg">
<path d="M22.9678 2.0752C31.7516 2.0753 38.4242 5.09298 41.1982 7.30078L41.209 7.30957L41.2197 7.31738C41.3317 7.40319 41.4569 7.60413 41.457 7.93359V66.4941C41.457 67.2256 40.732 67.8171 39.9629 67.6494L39.8086 67.6055C35.685 66.1331 28.4888 63.881 22.9678 63.8809C16.7812 63.8809 8.87799 65.8081 3.93066 67.457C2.95995 67.7713 1.99547 67.0026 1.99512 66.2002V8.74121C1.99512 7.36335 2.76175 6.18019 3.92285 5.72461C8.19814 4.08729 15.3508 2.0752 22.9678 2.0752ZM67.6562 2.0752C75.2733 2.07527 82.4253 4.08706 86.6973 5.73828L86.7031 5.74121C87.8572 6.18038 88.6279 7.35809 88.6279 8.74121V66.2002C88.6276 67.0166 87.651 67.7793 86.6982 67.459L86.6943 67.458C81.7472 65.809 73.8436 63.8809 67.6562 63.8809C62.1335 63.8809 54.9336 66.134 50.8105 67.6064C50.0034 67.8929 49.167 67.2729 49.167 66.4941V7.93359C49.1671 7.62544 49.2934 7.40363 49.4189 7.30469L49.4248 7.30078C52.1988 5.09294 58.8722 2.0752 67.6562 2.0752Z" stroke="white" stroke-width="2.74451"/>
</svg>
