<svg width="91" height="80" viewBox="0 0 91 80" fill="none" xmlns="http://www.w3.org/2000/svg">
<path d="M5.68262 29.7686H17.0469C19.5052 29.7686 21.4893 31.7526 21.4893 34.2109V73.9873C21.4893 76.4457 19.5052 78.4297 17.0469 78.4297H5.68262C3.22427 78.4297 1.24023 76.4457 1.24023 73.9873V34.2109C1.24023 31.7526 3.22427 29.7686 5.68262 29.7686ZM46.835 7.21387C47.6244 3.2673 51.4642 0.703598 55.4082 1.49219C59.3545 2.28144 61.9187 6.12081 61.1309 10.0645L60.7227 12.0889L60.7217 12.0918C59.8082 16.6938 58.1194 21.0726 55.7578 25.0547L54.6475 26.9268H82.3945C86.4155 26.9268 89.6787 30.19 89.6787 34.2109C89.6786 37.0156 88.087 39.4593 85.7471 40.6748L84.0654 41.5488L85.54 42.7402C87.1972 44.0782 88.2578 46.127 88.2578 48.417C88.2577 51.9659 85.7083 54.9258 82.3584 55.5625L80.6084 55.8945L81.5283 57.4209C82.1958 58.5285 82.5752 59.8173 82.5752 61.2021C82.5751 64.4332 80.4665 67.1793 77.5566 68.1191L76.4922 68.4629L76.7246 69.5566C76.832 70.063 76.8926 70.5986 76.8926 71.1465C76.8924 75.1673 73.6302 78.4295 69.6094 78.4297H52.2959C49.1674 78.4297 46.1217 77.508 43.5195 75.7793L36.6826 71.2158H36.6816C32.2867 68.2858 29.6514 63.3457 29.6514 58.0586V38.3125C29.6514 33.5064 31.84 28.9757 35.582 25.959L36.8916 24.916L36.8936 24.915C41.8272 20.968 45.1968 15.4184 46.4258 9.23633L46.834 7.21582L46.835 7.21387Z" stroke="white" stroke-width="2.47958"/>
</svg>
