<svg width="80" height="69" viewBox="0 0 80 69" fill="none" xmlns="http://www.w3.org/2000/svg">
<path d="M20.7578 59.1768L4.21484 66.6152C3.69178 66.8499 3.15877 66.7676 2.70801 66.4238C2.24424 66.0701 1.86926 65.425 1.86914 64.5771V12.8574C1.86915 11.8809 2.39744 11.1143 3.0332 10.8184L20.7578 2.85059V59.1768ZM51.5156 9.87012V66.1543L28.2334 58.665V2.38086L51.5156 9.87012ZM75.5342 1.9209C76.0572 1.68628 76.5903 1.76861 77.041 2.1123C77.5049 2.46609 77.8799 3.11196 77.8799 3.95996V55.6787C77.8799 56.5988 77.4112 57.3328 76.8252 57.6621L76.7158 57.7178L58.9922 65.6846V9.37305L75.5342 1.9209Z" stroke="white" stroke-width="3.08197"/>
</svg>
