<svg width="76" height="76" viewBox="0 0 76 76" fill="none" xmlns="http://www.w3.org/2000/svg">
<path d="M60.2383 33.9883L60.0352 34.6816L53.6641 55.9316C52.8871 58.5081 50.9062 60.5533 48.3574 61.4072L9.37891 74.4736L9.36914 74.4775C8.50429 74.776 7.57048 74.7132 6.75781 74.3369L27.8916 53.2031C28.7613 53.5158 29.6964 53.6894 30.6729 53.6895C35.2192 53.6895 38.9081 50.0014 38.9082 45.4551C38.9082 40.9086 35.2193 37.2207 30.6729 37.2207C26.1266 37.2209 22.4385 40.9088 22.4385 45.4551C22.4385 46.4312 22.6123 47.3659 22.9248 48.2354L1.79004 69.3555C1.42145 68.5482 1.36082 67.6081 1.6543 66.7354V66.7344L14.7207 27.7715L14.7217 27.7695C15.575 25.2094 17.6176 23.2405 20.1963 22.4629L41.4463 16.0928L41.4512 16.0918L42.1436 15.8799L60.2383 33.9883ZM55.1455 4.13672C57.9239 1.35885 62.4131 1.35966 65.1914 4.1377L71.9746 10.9355L71.9756 10.9365C74.754 13.7149 74.754 18.204 71.9756 20.9824L64.5781 28.3789L47.7471 11.5479L55.1465 4.1377L55.1455 4.13672Z" stroke="white" stroke-width="2.31148"/>
</svg>
