<svg width="82" height="82" viewBox="0 0 82 82" fill="none" xmlns="http://www.w3.org/2000/svg">
<g clip-path="url(#clip0_923_289)">
<path d="M35.9775 1.51953C38.5212 1.51953 40.7748 2.29608 42.3613 3.48535C43.9477 4.67469 44.7998 6.21174 44.7998 7.79004C44.7996 9.37361 43.9464 10.9082 42.3604 12.0996C40.9819 13.1242 39.6955 14.782 39.6953 16.8496C39.6953 19.6574 41.9754 21.9375 44.7832 21.9375H53.8438C57.3048 21.9377 60.1133 24.7469 60.1133 28.208V37.2686C60.1135 40.0761 62.3936 42.3555 65.2012 42.3555C67.2689 42.3554 68.9266 41.069 69.9512 39.6904L69.9502 39.6895C71.1417 38.1033 72.6781 37.251 74.2617 37.251C75.8399 37.2511 77.3762 38.1032 78.5654 39.6895C79.7548 41.2759 80.5312 43.5294 80.5312 46.0732C80.5312 48.6172 79.7549 50.8715 78.5654 52.458C77.3762 54.0441 75.8398 54.8954 74.2617 54.8955C72.6763 54.8955 71.1393 54.0406 69.9473 52.4512C68.9224 51.0745 67.2664 49.7911 65.2012 49.791C62.3934 49.791 60.1133 52.0711 60.1133 54.8789V74.1484C60.1131 77.6094 57.3047 80.4178 53.8438 80.418H44.7832C43.5075 80.418 42.4689 79.3802 42.4688 78.1045C42.4688 77.2373 43.0325 76.3101 44.0146 75.5801L44.0195 75.5771C46.1308 73.9937 47.5731 71.7016 47.5732 69.0439C47.5732 66.3951 46.1358 64.1028 44.0254 62.5205C41.9151 60.9385 39.0644 60 35.9775 60C32.8906 60 30.0399 60.9384 27.9297 62.5205C25.8193 64.1028 24.3818 66.3951 24.3818 69.0439C24.3819 71.7016 25.8243 73.9937 27.9355 75.5771L27.9404 75.5801C28.9227 76.3101 29.4863 77.2373 29.4863 78.1045C29.4862 79.38 28.4484 80.4177 27.1729 80.418H7.90332C4.44219 80.418 1.63295 77.6095 1.63281 74.1484V54.8789C1.63281 53.6031 2.67142 52.5645 3.94727 52.5645C4.81429 52.5646 5.74081 53.1285 6.4707 54.1104L6.47461 54.1152C8.05812 56.2266 10.3501 57.6689 13.0078 57.6689C15.6565 57.6688 17.9481 56.2314 19.5303 54.1211C21.1124 52.0108 22.0508 49.1602 22.0508 46.0732C22.0508 42.9863 21.1124 40.1356 19.5303 38.0254C17.9481 35.9151 15.6564 34.4777 13.0078 34.4775C10.3501 34.4775 8.05812 35.9199 6.47461 38.0312L6.4707 38.0361C5.74079 39.0181 4.81435 39.5819 3.94727 39.582C2.67157 39.582 1.63305 38.5442 1.63281 37.2686V28.208C1.63281 24.7468 4.4421 21.9375 7.90332 21.9375H27.1729C29.9804 21.9372 32.2598 19.6572 32.2598 16.8496C32.2596 14.782 30.9732 13.1242 29.5947 12.0996C28.0087 10.9082 27.1554 9.37356 27.1553 7.79004C27.1553 6.21174 28.0074 4.67469 29.5938 3.48535C31.1802 2.29604 33.4338 1.51955 35.9775 1.51953Z" stroke="white" stroke-width="2.77377"/>
</g>
<defs>
<clipPath id="clip0_923_289">
<rect width="81.6721" height="81.6721" fill="white" transform="translate(0.246094 0.132812)"/>
</clipPath>
</defs>
</svg>
