<svg width="74" height="75" viewBox="0 0 74 75" fill="none" xmlns="http://www.w3.org/2000/svg">
<path d="M4.62305 1.92871H23.1152C25.0338 1.92897 26.582 3.47787 26.582 5.39648V60.8721C26.5819 67.8903 20.8874 73.5848 13.8691 73.585C6.85076 73.585 1.15542 67.8904 1.15527 60.8721V5.39648C1.15527 3.47771 2.70427 1.92871 4.62305 1.92871ZM69.3447 48.1582C71.2633 48.1585 72.8115 49.7074 72.8115 51.626V70.1182C72.8113 72.0366 71.2631 73.5847 69.3447 73.585H29.1982L54.626 48.1582H69.3447ZM13.8691 56.249C12.6431 56.249 11.4666 56.7356 10.5996 57.6025C9.73264 58.4695 9.24609 59.646 9.24609 60.8721C9.24617 62.098 9.73283 63.2737 10.5996 64.1406C11.4666 65.0076 12.6431 65.4951 13.8691 65.4951C15.0951 65.495 16.2708 65.0075 17.1377 64.1406C18.0046 63.2737 18.4921 62.0981 18.4922 60.8721C18.4922 59.646 18.0047 58.4695 17.1377 57.6025C16.2708 56.7358 15.095 56.2491 13.8691 56.249ZM44.0703 12.9453C45.4247 11.591 47.626 11.5911 48.9805 12.9453L62.0547 26.0205C63.4091 27.375 63.4091 29.5752 62.0547 30.9297L33.5166 59.4531V23.499L44.0703 12.9453ZM8.08984 38.9131H19.6475V27.3555H8.08984V38.9131ZM8.08984 20.4209H19.6475V8.86328H8.08984V20.4209Z" stroke="white" stroke-width="2.31148"/>
</svg>
